<?xml version="1.0" encoding="UTF-8" standalone="no"?>
<!DOCTYPE svg PUBLIC "-//W3C//DTD SVG 1.1//EN" "http://www.w3.org/Graphics/SVG/1.1/DTD/svg11.dtd">
<svg width="100%" height="100%" viewBox="0 0 2048 2048" version="1.1" xmlns="http://www.w3.org/2000/svg" xmlns:xlink="http://www.w3.org/1999/xlink" xml:space="preserve" xmlns:serif="http://www.serif.com/" style="fill-rule:evenodd;clip-rule:evenodd;stroke-linecap:round;stroke-linejoin:round;stroke-miterlimit:1.5;">
    <g id="レイヤー5">
        <path d="M205.688,1.705C132.544,1.617 0.789,207.494 2.007,311.393C2.577,359.999 202.919,365.309 203.219,410.467C204.574,614.001 204.959,1637.51 204.959,1637.51C204.959,1637.51 280.845,1639.27 323.114,1635.58C370.311,1631.46 412.207,1510.74 411.472,1438.86C410.31,1325.24 414.245,921.448 414.245,921.448C414.245,921.448 796.367,916.648 915.29,919.563C1015.36,922.016 1070.76,1128.29 1142.09,1129.38C1211.42,1130.44 1330.73,1096.92 1330.05,1025.3C1328.33,846.442 1079.43,719.545 917.844,718.388C756.584,717.234 410.758,714.646 410.758,714.646C410.758,714.646 411.864,318.882 410.485,205.891C409.194,100.068 363.555,1.932 315.356,1.868C282.223,1.824 282.93,1.798 205.688,1.705Z" style="stroke:black;stroke-width:1px;"/>
    </g>
</svg>
