<?xml version="1.0" encoding="UTF-8" standalone="no"?>
<!DOCTYPE svg PUBLIC "-//W3C//DTD SVG 1.1//EN" "http://www.w3.org/Graphics/SVG/1.1/DTD/svg11.dtd">
<svg width="100%" height="100%" viewBox="0 0 2048 2048" version="1.1" xmlns="http://www.w3.org/2000/svg" xmlns:xlink="http://www.w3.org/1999/xlink" xml:space="preserve" xmlns:serif="http://www.serif.com/" style="fill-rule:evenodd;clip-rule:evenodd;stroke-linecap:round;stroke-linejoin:round;stroke-miterlimit:1.5;">
    <g id="レイヤー5">
        <path d="M410.744,205.013C410.082,91.692 363.813,0.277 314.072,1.21C248.045,2.449 249.303,142.936 202.574,204.493C150.354,273.284 0.751,360.922 0.749,413.958C0.748,466.993 202.065,462.547 202.565,522.705C205.008,816.874 203.642,1435.64 204.718,1540.25C205.219,1588.92 257.621,1638.51 310.567,1638.7C364.982,1638.89 409.082,1588.64 409.288,1539.84C409.738,1433.4 410.976,1126.72 410.976,1126.72C410.976,1126.72 694.585,935.654 809.103,935.945C1431.5,937.527 859.192,1638.48 913.316,1638.42C977.943,1638.34 1358.35,1432.71 1359.13,1230.62C1362.54,348.2 409.16,1015.42 409.16,1015.42C409.16,1015.42 411.917,405.939 410.744,205.013Z" style="stroke:black;stroke-width:1px;"/>
    </g>
</svg>
