<?xml version="1.0" encoding="UTF-8" standalone="no"?>
<!DOCTYPE svg PUBLIC "-//W3C//DTD SVG 1.1//EN" "http://www.w3.org/Graphics/SVG/1.1/DTD/svg11.dtd">
<svg width="100%" height="100%" viewBox="0 0 2048 2048" version="1.1" xmlns="http://www.w3.org/2000/svg" xmlns:xlink="http://www.w3.org/1999/xlink" xml:space="preserve" xmlns:serif="http://www.serif.com/" style="fill-rule:evenodd;clip-rule:evenodd;stroke-linecap:round;stroke-linejoin:round;stroke-miterlimit:1.5;">
    <g id="レイヤー5">
        <path d="M410.442,1.462C304.078,2.719 288.496,146.857 205.003,203.909C106.55,271.184 2.406,255.42 1.516,309.5C0.349,380.403 4.55,409.467 4.55,409.467L203.109,409.129L204.503,1634.93C204.503,1634.93 310.985,1634.4 354.305,1635.13C410.545,1636.08 407.641,1434.8 488.379,1435.98C585.16,1437.39 720.178,1638.29 923.03,1637.7C1135.79,1637.08 1538.76,1333.78 1540.05,1126.68C1541.36,916.179 1226.27,615.713 1024.92,616.134C818.119,616.566 456.945,889.835 456.945,889.835L463.531,541.674C463.531,541.674 1059.58,540.966 1224.6,540.945C1324.89,540.933 1431.94,289.439 1331.65,289.918C1226.23,290.421 461.8,288.604 461.8,288.604C461.8,288.604 462.132,204.891 462.131,94.423C462.131,44.473 457.139,0.91 410.442,1.462ZM912.046,879.268C1026.08,875.466 1233.38,1112.55 1232.57,1227.31C1231.88,1325.33 1140.96,1429.31 1023.21,1426.7C910.433,1424.21 569.396,1092.02 569.396,1092.02C569.396,1092.02 823.009,882.237 912.046,879.268Z" style="stroke:black;stroke-width:1px;"/>
    </g>
</svg>
