<?xml version="1.0" encoding="UTF-8" standalone="no"?>
<!DOCTYPE svg PUBLIC "-//W3C//DTD SVG 1.1//EN" "http://www.w3.org/Graphics/SVG/1.1/DTD/svg11.dtd">
<svg width="100%" height="100%" viewBox="0 0 2048 2048" version="1.1" xmlns="http://www.w3.org/2000/svg" xmlns:xlink="http://www.w3.org/1999/xlink" xml:space="preserve" xmlns:serif="http://www.serif.com/" style="fill-rule:evenodd;clip-rule:evenodd;stroke-linecap:round;stroke-linejoin:round;stroke-miterlimit:1.5;">
    <g id="レイヤー5">
        <path d="M310.617,4.408C205.495,4.141 11.485,211.721 11.485,211.721L201.901,412.878C201.901,412.878 201.378,1316.84 206.796,1520.41C208.39,1580.28 271.423,1633.77 304.969,1634.13C338.515,1634.5 404.792,1570.82 405.776,1520.09C408.903,1358.8 408.911,406.364 408.911,406.364C408.911,406.364 681.413,563.349 914.702,692.659C1113.34,802.765 1123,1125.14 1124.22,1233.92C1127.43,1519.35 617.555,1433.07 617.555,1433.07C617.555,1433.07 821.782,1642.88 1016.93,1640.08C1218.46,1637.18 1428.53,1532.9 1429.27,1341.36C1430.47,1029.35 1174.56,775.408 1174.56,775.408C1174.56,775.408 1432.2,598.543 1433.94,408.662C1435.69,217.863 1219.78,5.252 1019.3,7.644C926.694,8.75 810.635,113.116 810.635,113.116C810.635,113.116 1221.42,218.699 1228.35,511.85C1230.96,622.258 1092.58,692.652 1092.58,692.652L405.814,309.37C405.814,309.37 408.758,278.493 407.694,207.661C406.193,107.742 395.401,4.623 310.617,4.408Z" style="stroke:black;stroke-width:1px;"/>
    </g>
</svg>
