<?xml version="1.0" encoding="UTF-8" standalone="no"?>
<!DOCTYPE svg PUBLIC "-//W3C//DTD SVG 1.1//EN" "http://www.w3.org/Graphics/SVG/1.1/DTD/svg11.dtd">
<svg width="100%" height="100%" viewBox="0 0 2048 2048" version="1.1" xmlns="http://www.w3.org/2000/svg" xmlns:xlink="http://www.w3.org/1999/xlink" xml:space="preserve" xmlns:serif="http://www.serif.com/" style="fill-rule:evenodd;clip-rule:evenodd;stroke-linecap:round;stroke-linejoin:round;stroke-miterlimit:1.5;">
    <g id="レイヤー5">
        <path d="M312.512,1.514C242.504,1.933 239.424,125.696 188.79,183.7C136.894,243.148 0.597,310.621 1.139,358.204C1.694,406.996 203.695,355.159 204.151,407.949C205.925,613.151 200.727,821.183 205.272,1118.38C208.67,1340.5 504.815,1635.83 716.977,1641.26C828.106,1644.11 913.343,1642.4 1121.43,1639.21C1321.84,1636.13 1639.85,1228.73 1638.64,924.527C1638.22,820.07 1432.05,509.427 1231.98,514.819C1027.8,520.323 815.42,620.366 817.361,819.25C819.337,1021.76 820.742,1424.56 820.742,1424.56C820.742,1424.56 420.426,1416.07 412.554,1117.99C404.687,820.05 413.547,407.704 411.195,208.791C410.013,108.835 371.958,1.159 312.512,1.514ZM1024.75,929.554C1026.85,820.954 1074.14,725.651 1134.26,754.03C1202.07,786.039 1433.99,1019.26 1434.04,1114.35C1434.1,1232.92 1324.31,1431.74 1227.95,1431.79C1126.96,1431.84 1024.84,1428.07 1024.84,1428.07C1024.84,1428.07 1022.93,1023.56 1024.75,929.554Z" style="stroke:black;stroke-width:1px;"/>
    </g>
</svg>
