<?xml version="1.0" encoding="UTF-8" standalone="no"?>
<!DOCTYPE svg PUBLIC "-//W3C//DTD SVG 1.1//EN" "http://www.w3.org/Graphics/SVG/1.1/DTD/svg11.dtd">
<svg width="100%" height="100%" viewBox="0 0 2048 2048" version="1.1" xmlns="http://www.w3.org/2000/svg" xmlns:xlink="http://www.w3.org/1999/xlink" xml:space="preserve" xmlns:serif="http://www.serif.com/" style="fill-rule:evenodd;clip-rule:evenodd;stroke-linecap:round;stroke-linejoin:round;stroke-miterlimit:1.5;">
    <g id="レイヤー5">
        <path d="M725.191,-1.43C664.756,-2.111 606.511,71.299 537.956,119.999C484.635,157.876 412.296,167.37 410.215,202.01C407.38,249.193 412.33,309.896 446.158,344.518C479.987,379.139 611.829,348.02 613.185,409.736C614.641,475.965 614.638,715.843 614.638,715.843C614.638,715.843 408.941,714.404 309.752,716.489C260.467,717.525 202.883,784.839 204.247,820.118C205.611,855.398 265.861,926.805 317.936,928.165C406.584,930.481 613.22,928.296 613.22,928.296L614.246,1432.53C614.246,1432.53 206.843,1436.98 112.555,1435.51C62.413,1434.74 -1.091,1478.19 0.068,1535.42C1.345,1598.52 58.928,1638.13 111.698,1637.92C285.031,1637.25 822.495,1641.66 1026.33,1639.58C1231.4,1637.48 1434.53,1336.7 1434.62,1234.77C1434.69,1138.27 1332.94,1432.97 1025.42,1433.15C970.16,1433.18 821.084,1433.46 821.084,1433.46L818.659,929.512C818.659,929.512 851.64,928.027 1024.27,929.545C1073.74,929.98 1130.25,873.188 1130.13,818.137C1130.02,765.247 1071.8,717.08 1024.68,716.394C970.41,715.604 820.906,716.919 820.906,716.919C820.906,716.919 820.515,407.143 820.124,204.378C819.978,128.963 818.064,-0.384 725.191,-1.43Z" style="stroke:black;stroke-width:1px;"/>
    </g>
</svg>
