<?xml version="1.0" encoding="UTF-8" standalone="no"?>
<!DOCTYPE svg PUBLIC "-//W3C//DTD SVG 1.1//EN" "http://www.w3.org/Graphics/SVG/1.1/DTD/svg11.dtd">
<svg width="100%" height="100%" viewBox="0 0 2048 2048" version="1.1" xmlns="http://www.w3.org/2000/svg" xmlns:xlink="http://www.w3.org/1999/xlink" xml:space="preserve" xmlns:serif="http://www.serif.com/" style="fill-rule:evenodd;clip-rule:evenodd;stroke-linecap:round;stroke-linejoin:round;stroke-miterlimit:1.5;">
    <g id="レイヤー5">
        <path d="M1023.59,207.891C1023.59,207.891 1022.38,-0.121 924.912,0.083C817.264,0.308 816.413,206.243 816.413,206.243L819.718,410.474L205.484,409.646C205.484,409.646 2.85,409.677 1.008,507.87C-0.881,608.553 209.035,613.629 209.035,613.629L818.944,613.262L818.085,1435.93C818.085,1435.93 823.688,1641.03 921.755,1639.9C1025.18,1638.72 1025.41,1436.05 1025.41,1436.05L1022.48,616.848C1022.48,616.848 1229.7,614.23 1230.33,519.263C1231.08,408.302 1022.68,409.642 1022.68,409.642L1023.59,207.891Z" style="stroke:black;stroke-width:1px;"/>
    </g>
</svg>
