<?xml version="1.0" encoding="UTF-8" standalone="no"?>
<!DOCTYPE svg PUBLIC "-//W3C//DTD SVG 1.1//EN" "http://www.w3.org/Graphics/SVG/1.1/DTD/svg11.dtd">
<svg width="100%" height="100%" viewBox="0 0 2048 2048" version="1.1" xmlns="http://www.w3.org/2000/svg" xmlns:xlink="http://www.w3.org/1999/xlink" xml:space="preserve" xmlns:serif="http://www.serif.com/" style="fill-rule:evenodd;clip-rule:evenodd;stroke-linecap:round;stroke-linejoin:round;stroke-miterlimit:1.5;">
    <g id="レイヤー5">
        <path d="M301.402,0.798C253.694,1.271 244.197,141.83 199.717,202.631C149.591,271.151 0.141,358.338 0.641,411.918C1.13,464.216 268.815,467.675 268.79,516.927C268.76,577.874 271.15,616.016 270.206,710.943C269.175,814.699 3.328,824.054 1.465,1023.23C-2.303,1425.92 411.819,1639.54 822.5,1638.36C1118.58,1637.51 1491.92,1365.77 1488.38,1025C1487.37,928.069 1637.66,911.686 1637.78,711.213C1637.89,512.659 1327.68,196.156 1120.83,200.144C815.597,206.028 619.071,411.642 614.836,613.479C610.526,818.884 610.966,1416.59 610.966,1416.59C610.966,1416.59 206.559,1226.98 208.235,1018.87C209.045,918.315 411.163,813.81 409.974,706.155C409.141,630.796 408.785,570.069 407.765,515.425C406.762,461.729 492.591,457.517 491.729,407.803C490.822,355.545 451.182,269.555 409.501,201.831C369.622,137.035 407.206,-0.252 301.402,0.798ZM817.988,1025.73L1281.49,1026.2C1281.49,1026.2 1241.35,1258.05 1173.68,1325.4C1106.01,1392.75 822.708,1434.46 822.708,1434.46L817.988,1025.73ZM818.499,616.375C817.819,511.904 823.925,410.584 889.476,410.747C957.659,410.916 1287.13,516.084 1286.18,618.396C1285.24,719.71 1283.98,823.568 1283.98,823.568L818.722,822.097C818.722,822.097 819.125,712.612 818.499,616.375Z" style="stroke:black;stroke-width:1px;"/>
    </g>
</svg>
