<?xml version="1.0" encoding="UTF-8" standalone="no"?>
<!DOCTYPE svg PUBLIC "-//W3C//DTD SVG 1.1//EN" "http://www.w3.org/Graphics/SVG/1.1/DTD/svg11.dtd">
<svg width="100%" height="100%" viewBox="0 0 2048 2048" version="1.1" xmlns="http://www.w3.org/2000/svg" xmlns:xlink="http://www.w3.org/1999/xlink" xml:space="preserve" xmlns:serif="http://www.serif.com/" style="fill-rule:evenodd;clip-rule:evenodd;stroke-linecap:round;stroke-linejoin:round;stroke-miterlimit:1.5;">
    <g id="レイヤー5">
        <path d="M1127.72,0.636C1026.79,1.999 822.988,209.626 821.234,302.501C820.187,357.901 1022.28,360.06 1022.97,410.092C1024.59,527.663 1023.97,708.066 1023.97,708.066C1023.97,708.066 204.277,709.352 104.005,709.518C54.84,709.599 -1.281,765.808 -0.196,817.788C1.741,910.552 165.08,1242.33 277.492,1356.61C367.349,1447.96 574.954,1624.66 817.982,1640.52C1024.62,1654 1225.76,1640.52 1225.76,1640.52C1225.76,1640.52 1228.53,410.535 1229.31,203.22C1229.7,99.505 1227.59,-0.714 1127.72,0.636ZM1028.87,910.587L1027.44,1423.89C1027.44,1423.89 693.811,1456.01 504.817,1271.08C313.386,1083.76 314.849,919.988 314.849,919.988L1028.87,910.587Z" style="stroke:black;stroke-width:1px;"/>
    </g>
</svg>
