<?xml version="1.0" encoding="UTF-8" standalone="no"?>
<!DOCTYPE svg PUBLIC "-//W3C//DTD SVG 1.1//EN" "http://www.w3.org/Graphics/SVG/1.1/DTD/svg11.dtd">
<svg width="100%" height="100%" viewBox="0 0 2048 2048" version="1.1" xmlns="http://www.w3.org/2000/svg" xmlns:xlink="http://www.w3.org/1999/xlink" xml:space="preserve" xmlns:serif="http://www.serif.com/" style="fill-rule:evenodd;clip-rule:evenodd;stroke-linecap:round;stroke-linejoin:round;stroke-miterlimit:1.5;">
    <g id="レイヤー5">
        <path d="M408.524,-1.6C321.261,-2.341 302.214,106.7 247.308,161.838C173.401,236.057 88.633,252.187 90.456,301.1C92.71,361.564 299.94,308.838 302.86,409.682C305.097,486.992 305.965,713.181 305.965,713.181C305.965,713.181 163.562,712.392 110.691,713.477C57.228,714.575 3.566,773.621 2.334,817.863C0.965,867.048 47.656,923.712 109.95,925.784C204.874,928.94 309.866,927.667 309.866,927.667C309.866,927.667 311.807,1434.89 313.228,1537.5C313.871,1583.99 351.79,1640.63 408.572,1639.14C464.199,1637.69 521.033,1585.84 521.793,1534.44C523.285,1433.63 523.435,1300.49 523.435,1300.49C523.435,1300.49 957.528,1643.32 1126.62,1642.75C1434.78,1641.72 1547.33,1436.8 1545.25,1229.81C1543.2,1025.87 1547.46,1024.86 1546.33,816.53C1545.76,711.752 1234.71,412.239 1234.71,412.239C1234.71,412.239 1535.18,408.656 1639.31,407.161C1693.65,406.381 1751.07,347.021 1752.84,311.425C1754.6,275.829 1692.6,204.258 1641.01,204.422C1436.83,205.069 1147.77,205.396 1023.76,205.88C927.802,206.255 860.283,307.111 861.882,405.634C863.604,511.764 1058.95,530.632 1134.52,615.927C1210.08,701.222 1334.93,820.431 1336.29,920.733C1337.69,1023.93 1227.36,1331.72 1023.2,1328.4C615.959,1321.78 525.189,918.252 525.189,918.252C525.189,918.252 617.945,918.82 718.746,919.061C764.227,919.17 818.531,869.26 819.744,817.773C821.126,759.078 766.626,711.846 717.792,712.544C659.497,713.377 520.998,712.663 520.998,712.663C520.998,712.663 517.533,407.999 517.269,202.864C517.146,108.034 514.452,-0.701 408.524,-1.6Z" style="stroke:black;stroke-width:1px;"/>
    </g>
</svg>
