<?xml version="1.0" encoding="UTF-8" standalone="no"?>
<!DOCTYPE svg PUBLIC "-//W3C//DTD SVG 1.1//EN" "http://www.w3.org/Graphics/SVG/1.1/DTD/svg11.dtd">
<svg width="100%" height="100%" viewBox="0 0 2048 2048" version="1.1" xmlns="http://www.w3.org/2000/svg" xmlns:xlink="http://www.w3.org/1999/xlink" xml:space="preserve" xmlns:serif="http://www.serif.com/" style="fill-rule:evenodd;clip-rule:evenodd;stroke-linecap:round;stroke-linejoin:round;stroke-miterlimit:1.5;">
    <g id="レイヤー5">
        <path d="M1024.78,2.969C817.988,5.629 107.562,523.962 108.742,1133.41C109.111,1323.64 307.522,1641.14 509.032,1642.17C712.487,1643.2 1024.06,1639.18 1226.49,1639.75C1323.09,1640.02 1361.51,1569.47 1360.99,1526.94C1360.34,1473.29 1338.98,1433.96 1231.89,1431.84C1156.38,1430.34 1025.79,1432.28 1025.79,1432.28L1026.35,207.487C1026.35,207.487 1242.56,320.247 1290.04,406.122C1337.52,491.997 1324.75,643.293 1325.7,722.134C1326.28,769.738 1372.26,816.76 1438.39,816.531C1498.29,816.323 1537.96,759.583 1536.89,722.21C1535.96,690.001 1537.71,648.419 1554.86,618.12C1573.28,585.587 1641.95,572.815 1641.09,513.235C1639.62,410.971 1531.51,281.882 1434.84,204.669C1330.06,120.968 1231.92,0.305 1024.78,2.969ZM816.28,301.818L822.466,1428.7C822.466,1428.7 359.663,1437.29 360.2,1127.09C360.901,722.267 816.28,301.818 816.28,301.818Z" style="stroke:black;stroke-width:1px;"/>
    </g>
</svg>
