<?xml version="1.0" encoding="UTF-8" standalone="no"?>
<!DOCTYPE svg PUBLIC "-//W3C//DTD SVG 1.1//EN" "http://www.w3.org/Graphics/SVG/1.1/DTD/svg11.dtd">
<svg width="100%" height="100%" viewBox="0 0 2048 2048" version="1.1" xmlns="http://www.w3.org/2000/svg" xmlns:xlink="http://www.w3.org/1999/xlink" xml:space="preserve" xmlns:serif="http://www.serif.com/" style="fill-rule:evenodd;clip-rule:evenodd;stroke-linecap:round;stroke-linejoin:round;stroke-miterlimit:1.5;">
    <g id="レイヤー5">
        <path d="M313.503,13.449C313.503,13.449 2.058,234.636 4.258,326.97C6.601,425.316 155.013,520.714 250.949,521.397C562.018,523.614 688.394,260.091 925.562,302.95C1232.01,358.329 1273.69,728.433 1273.69,728.433L771.186,745.223L604.797,923.883L1301.76,894.514C1301.76,894.514 1353.88,1414.83 924.811,1491.9C774.031,1518.99 586.791,1359.38 465.739,1299.86C374.461,1254.99 183.87,1476.71 262.852,1520.13C353.614,1570.03 813.203,1679.92 1017.74,1618.35C1636.2,1432.16 1646.99,880.09 1646.99,880.09L1773.97,868.46L1914.72,703.726L1645.33,710.359C1645.33,710.359 1507.04,158.296 976.256,129.54C770.7,118.404 526.161,326.2 398.526,347.765C158.586,388.305 313.503,13.449 313.503,13.449Z" style="stroke:black;stroke-width:1px;"/>
    </g>
</svg>
