<?xml version="1.0" encoding="UTF-8" standalone="no"?>
<!DOCTYPE svg PUBLIC "-//W3C//DTD SVG 1.1//EN" "http://www.w3.org/Graphics/SVG/1.1/DTD/svg11.dtd">
<svg width="100%" height="100%" viewBox="0 0 2048 2048" version="1.1" xmlns="http://www.w3.org/2000/svg" xmlns:xlink="http://www.w3.org/1999/xlink" xml:space="preserve" xmlns:serif="http://www.serif.com/" style="fill-rule:evenodd;clip-rule:evenodd;stroke-linecap:round;stroke-linejoin:round;stroke-miterlimit:1.5;">
    <g id="レイヤー5">
        <path d="M304.857,-0.196C244.383,0.761 244.564,93.831 165.112,168.479C93.477,235.782 1.875,282.935 1.843,308.284C1.782,356.724 199.912,362.922 202.608,412.38C213.65,614.891 204.664,1435.23 205.098,1538.72C205.298,1586.25 251.076,1639.47 307.171,1638.3C363.182,1637.13 407.548,1584.93 408.411,1537.77C410.331,1432.89 411.177,1025.3 412.063,828.388C412.537,723.059 827.229,672.131 928.406,672.84C1019.94,673.481 1093.02,771.154 1094.15,819.346C1096.57,922.529 821.908,1026.45 821.312,1136.05C820.804,1229.44 800.456,1670.35 860.034,1628.29C933.993,1576.08 953.741,1516.5 1026.84,1473.16C1104.95,1426.84 1332.07,1325.52 1332.07,1325.52C1332.07,1325.52 1026.6,1335.88 1025.7,1228.74C1025.27,1178.41 1336.22,1076.94 1334.64,822.686C1333.36,616.534 1182.87,562.084 978.889,558.846C874.024,557.181 410.574,613.156 410.574,613.156C410.574,613.156 408.832,409.62 410.054,200.778C410.682,93.379 363.636,-1.125 304.857,-0.196Z" style="stroke:black;stroke-width:1px;"/>
    </g>
</svg>
