<?xml version="1.0" encoding="UTF-8" standalone="no"?>
<!DOCTYPE svg PUBLIC "-//W3C//DTD SVG 1.1//EN" "http://www.w3.org/Graphics/SVG/1.1/DTD/svg11.dtd">
<svg width="100%" height="100%" viewBox="0 0 2048 2048" version="1.1" xmlns="http://www.w3.org/2000/svg" xmlns:xlink="http://www.w3.org/1999/xlink" xml:space="preserve" xmlns:serif="http://www.serif.com/" style="fill-rule:evenodd;clip-rule:evenodd;stroke-linecap:round;stroke-linejoin:round;stroke-miterlimit:1.5;">
    <g id="レイヤー5">
        <path d="M1023.76,204.268C1024.67,112.409 928.336,1.62 810.983,1.008C613.745,-0.021 2.885,627.09 2.231,1024.4C1.374,1544.67 202.244,1640.47 410.85,1640.08C1028.23,1638.9 1233.01,1228.75 1233.01,1228.75C1233.01,1228.75 817.745,1431.12 618.611,1430.83C316.756,1430.38 204.433,1135.26 204.406,1028.63C204.385,947.039 204.166,913.659 204.166,913.659C204.166,913.659 1027.02,913.887 1229.06,913.181C1280.88,912.999 1335.46,881.59 1335.95,820.752C1336.31,776.041 1278.84,715.872 1225.97,715.905C1137.37,715.959 821.92,719.071 821.92,719.071L818.828,311.488C818.828,311.488 1022.82,299.686 1023.76,204.268ZM615.122,319.91L612.928,724.65L252.567,729.998C252.567,729.998 286.048,537.741 415.566,421.385C515.908,331.24 615.122,319.91 615.122,319.91Z" style="stroke:black;stroke-width:1px;"/>
    </g>
</svg>
