<?xml version="1.0" encoding="UTF-8" standalone="no"?>
<!DOCTYPE svg PUBLIC "-//W3C//DTD SVG 1.1//EN" "http://www.w3.org/Graphics/SVG/1.1/DTD/svg11.dtd">
<svg width="100%" height="100%" viewBox="0 0 2048 2048" version="1.1" xmlns="http://www.w3.org/2000/svg" xmlns:xlink="http://www.w3.org/1999/xlink" xml:space="preserve" xmlns:serif="http://www.serif.com/" style="fill-rule:evenodd;clip-rule:evenodd;stroke-linecap:round;stroke-linejoin:round;stroke-miterlimit:1.5;">
    <g id="レイヤー5">
        <path d="M410.514,712.155C410.514,712.155 411.158,404.587 411.991,204.44C412.303,129.519 409.158,1.914 360.216,2.915C313.001,3.881 -0.083,209.197 0.403,252.021C1.026,306.88 198.479,312.396 200.494,407.882C204.776,610.76 206.302,1627.16 206.302,1627.16C206.302,1627.16 409.155,1530.97 408.025,1433.46C405.714,1233.98 409.441,924.205 409.441,924.205L1094.86,922.23C1094.86,922.23 1069.79,1140.25 1017.29,1233.34C950.358,1352.04 693.246,1634.39 693.246,1634.39C693.246,1634.39 1320.92,1436.14 1391.81,1029.86C1427.12,827.451 1431.37,706.324 1431.37,706.324L695.161,714.55C695.161,714.55 1227.28,411.681 1224.44,310.476C1221.67,211.805 1112.69,144.765 1023.53,146.447C933.42,148.147 697.309,161.885 698.777,210.58C700.427,265.269 821.762,283.235 823.034,407.405C824.021,503.818 410.514,712.155 410.514,712.155Z" style="stroke:black;stroke-width:1px;"/>
    </g>
</svg>
