<?xml version="1.0" encoding="UTF-8" standalone="no"?>
<!DOCTYPE svg PUBLIC "-//W3C//DTD SVG 1.1//EN" "http://www.w3.org/Graphics/SVG/1.1/DTD/svg11.dtd">
<svg width="100%" height="100%" viewBox="0 0 2048 2048" version="1.1" xmlns="http://www.w3.org/2000/svg" xmlns:xlink="http://www.w3.org/1999/xlink" xml:space="preserve" xmlns:serif="http://www.serif.com/" style="fill-rule:evenodd;clip-rule:evenodd;stroke-linecap:round;stroke-linejoin:round;stroke-miterlimit:1.5;">
    <g id="レイヤー5">
        <path d="M409.562,210.319C409.035,106.604 366.604,0.363 311.208,1.13C253.522,1.929 249.751,143.885 203.405,204.666C151.78,272.369 2.857,357.643 2.354,408.977C1.851,460.31 203.767,462.716 204.126,513.3C206.265,814.97 199.838,1327.7 199.838,1327.7C199.838,1327.7 204.445,1527.32 303.311,1526.62C407.2,1525.88 406.42,1325.34 406.42,1325.34C406.42,1325.34 410.577,410.255 409.562,210.319Z" style="stroke:black;stroke-width:1px;"/>
        <path d="M1021.19,313.01C1017.84,201.666 977.578,96.609 925.583,95.667C870.89,94.676 858.692,208.944 817.362,259.802C774.946,311.997 670.578,368.898 671.085,408.839C671.592,448.781 819.512,459.023 819.586,507.663C820.061,818.679 817.761,1020.7 822.622,1233.28C824.748,1326.29 719.699,1432.1 619.682,1435.07C569.267,1436.56 459.692,1563.92 458.678,1597.77C457.664,1631.61 561.727,1636.34 613.597,1638.11C704.105,1641.21 749.089,1639.3 820.914,1638.95C918.191,1638.47 1024.91,1531.07 1024.86,1433.11C1024.76,1231.91 1030.01,606.078 1021.19,313.01Z" style="stroke:black;stroke-width:1px;"/>
        <g transform="matrix(1,0,0,1,610.411,1.98416)">
            <path d="M1027.02,319.272C1027.42,253.818 981.793,193.555 929.799,192.613C875.105,191.622 858.692,208.944 817.362,259.802C774.946,311.997 670.578,368.898 671.085,408.839C671.592,448.781 819.512,459.023 819.586,507.663C820.061,818.679 817.761,1020.7 822.622,1233.28C824.748,1326.29 719.699,1432.1 619.682,1435.07C569.267,1436.56 474.797,1551.49 473.783,1585.33C472.769,1619.17 561.727,1636.34 613.597,1638.11C704.105,1641.21 749.089,1639.3 820.914,1638.95C918.191,1638.47 1024.91,1531.07 1024.86,1433.11C1024.76,1231.91 1025.22,608.6 1027.02,319.272Z" style="stroke:black;stroke-width:1px;"/>
        </g>
    </g>
</svg>
