<?xml version="1.0" encoding="UTF-8" standalone="no"?>
<!DOCTYPE svg PUBLIC "-//W3C//DTD SVG 1.1//EN" "http://www.w3.org/Graphics/SVG/1.1/DTD/svg11.dtd">
<svg width="100%" height="100%" viewBox="0 0 2048 2048" version="1.1" xmlns="http://www.w3.org/2000/svg" xmlns:xlink="http://www.w3.org/1999/xlink" xml:space="preserve" xmlns:serif="http://www.serif.com/" style="fill-rule:evenodd;clip-rule:evenodd;stroke-linecap:round;stroke-linejoin:round;stroke-miterlimit:1.5;">
    <g id="レイヤー5">
        <path d="M415.814,2.71C376.443,2.957 298.427,5.43 307.129,48.958C336.325,195.005 413.377,163.461 413.377,163.461L1494.55,159.115L1120.12,699.709C1120.12,699.709 975.008,478.595 603.469,575.95C407.639,627.263 1.902,1015.45 -1.716,1226.94C-5.153,1427.82 107.357,1630.19 313.28,1632.31C383.154,1633.03 540.636,1612.91 612.083,1536.53C722.899,1418.04 1045.12,1030.19 1045.12,1030.19C1045.12,1030.19 1073.6,1152.85 1091.31,1221.15C1108.65,1288.02 1109.64,1433.53 1109.64,1433.53L928.358,1433.63C928.358,1433.63 820.329,1435.91 820.714,1537.91C821.093,1638.33 932.4,1641.73 932.4,1641.73L1531.45,1639.69C1531.45,1639.69 1640.99,1639.06 1639.78,1537.09C1638.56,1434.09 1530.54,1432.87 1530.54,1432.87L1386.31,1429.41C1386.31,1429.41 1391.13,1164.69 1329.21,988.635C1295.95,894.061 1227.65,788.154 1227.65,788.154C1227.65,788.154 1467.52,450.548 1594.52,250.279C1635.52,185.62 1637.63,132.546 1638.25,108.57C1641.01,1.017 1527.8,0.255 1527.8,0.255C1527.8,0.255 614.083,1.466 415.814,2.71ZM978.996,894.019C978.996,894.019 775.228,1162.55 616.462,1340.3C549.888,1414.83 443.522,1431.65 415.356,1431.9C91.67,1434.7 423.666,821.445 566.214,726.085C814.038,560.301 978.996,894.019 978.996,894.019Z" style="stroke:black;stroke-width:1px;"/>
    </g>
</svg>
