<?xml version="1.0" encoding="UTF-8" standalone="no"?>
<!DOCTYPE svg PUBLIC "-//W3C//DTD SVG 1.1//EN" "http://www.w3.org/Graphics/SVG/1.1/DTD/svg11.dtd">
<svg width="100%" height="100%" viewBox="0 0 2048 2048" version="1.1" xmlns="http://www.w3.org/2000/svg" xmlns:xlink="http://www.w3.org/1999/xlink" xml:space="preserve" xmlns:serif="http://www.serif.com/" style="fill-rule:evenodd;clip-rule:evenodd;stroke-linecap:round;stroke-linejoin:round;stroke-miterlimit:1.5;">
    <g transform="matrix(1.47382,0,0,1.32421,19.5434,-538.959)">
        <g id="レイヤー5">
            <path d="M819.144,514.374C819.305,405.582 822.03,407.073 747.227,407.456C660.441,407.9 540.138,512.635 542.997,596.957C544.642,645.485 680.265,632.418 680.765,672.632C681.365,720.877 684.16,871.217 684.16,871.217C684.16,871.217 507.859,813.944 402.07,814.191C197.835,814.669 -12.615,974.087 -13.988,1024.21C-15.394,1075.55 198.514,926.936 402.803,921.005C505.313,918.028 680.558,991.65 680.558,991.65C680.558,991.65 680.886,1255.03 680.615,1567.82C680.549,1644.07 752.43,1647.21 752.43,1647.21C752.43,1647.21 822.32,1641.65 821.161,1561.15C816.681,1250.17 818.623,867.337 819.144,514.374Z" style="stroke:black;stroke-width:0.71px;"/>
        </g>
    </g>
</svg>
