<?xml version="1.0" encoding="UTF-8" standalone="no"?>
<!DOCTYPE svg PUBLIC "-//W3C//DTD SVG 1.1//EN" "http://www.w3.org/Graphics/SVG/1.1/DTD/svg11.dtd">
<svg width="100%" height="100%" viewBox="0 0 2048 2048" version="1.1" xmlns="http://www.w3.org/2000/svg" xmlns:xlink="http://www.w3.org/1999/xlink" xml:space="preserve" xmlns:serif="http://www.serif.com/" style="fill-rule:evenodd;clip-rule:evenodd;stroke-linecap:round;stroke-linejoin:round;stroke-miterlimit:1.5;">
    <g id="レイヤー5">
        <path d="M818.638,205.813C818.106,110.876 815.36,3.524 722.527,2.994C660.726,2.641 413.941,200.635 366.297,260.746C319.521,319.762 516.817,259.981 516.644,374.477C516.525,452.211 514.031,723.699 514.031,723.699C514.031,723.699 312.809,725.887 208.563,725.91C160.269,725.921 4.117,917.467 4.117,917.467L515.695,911.571L517.368,1019.54C517.368,1019.54 301.081,1020.64 158.026,1023.18C107.036,1024.08 8.091,1226.98 8.091,1226.98L516.981,1224.77L514.08,1636.05C514.08,1636.05 666.683,1509.03 758.556,1508.78C860.973,1508.49 927.614,1636.73 1128.58,1634.35C1336.99,1631.89 1489.05,1340.37 1490.06,1226.79C1491.84,1028.43 1332.24,815.246 1177.8,816.127C1027.66,816.984 819.716,1025.7 819.716,1025.7C819.716,1025.7 819.774,408.765 818.638,205.813ZM1024.52,1052.88C1223.13,1052.76 1232.56,1345.22 1231.43,1433.18C1229.51,1583.19 815.582,1319.86 819.171,1228.65C822.865,1134.78 913.457,1052.95 1024.52,1052.88Z" style="stroke:black;stroke-width:1px;"/>
    </g>
</svg>
