<?xml version="1.0" encoding="UTF-8" standalone="no"?>
<!DOCTYPE svg PUBLIC "-//W3C//DTD SVG 1.1//EN" "http://www.w3.org/Graphics/SVG/1.1/DTD/svg11.dtd">
<svg width="100%" height="100%" viewBox="0 0 2048 2048" version="1.1" xmlns="http://www.w3.org/2000/svg" xmlns:xlink="http://www.w3.org/1999/xlink" xml:space="preserve" xmlns:serif="http://www.serif.com/" style="fill-rule:evenodd;clip-rule:evenodd;stroke-linecap:round;stroke-linejoin:round;stroke-miterlimit:1.5;">
    <g id="レイヤー5">
        <path d="M894.258,-3.663C787.796,-0.728 611.907,208.477 613.447,296.485C614.372,349.394 768.937,308.644 840.79,391.329C905.817,466.157 956.124,661.995 956.124,661.995C956.124,661.995 -0.958,1234.17 -1.954,1432.69C-2.454,1532.38 104.651,1634.53 207.329,1638.21C307.959,1641.81 614.327,1584.89 615.747,1530.96C617.249,1473.91 378.546,1425.14 408.991,1335.26C514.077,1025.03 1006.73,815.152 1006.73,815.152C1006.73,815.152 1084.81,1026.95 1109.45,1230.33C1133.92,1432.33 1181.89,1634.55 1227.95,1634.2C1317.85,1633.53 1433.65,1433.15 1435.85,1354.53C1436.71,1323.84 1407.55,1254.41 1379.65,1154.08C1300.15,868.227 1161.08,366.193 1094.08,198.182C1059.02,110.241 990.901,-6.327 894.258,-3.663Z" style="stroke:black;stroke-width:1px;"/>
    </g>
</svg>
