<?xml version="1.0" encoding="UTF-8" standalone="no"?>
<!DOCTYPE svg PUBLIC "-//W3C//DTD SVG 1.1//EN" "http://www.w3.org/Graphics/SVG/1.1/DTD/svg11.dtd">
<svg width="100%" height="100%" viewBox="0 0 2048 2048" version="1.1" xmlns="http://www.w3.org/2000/svg" xmlns:xlink="http://www.w3.org/1999/xlink" xml:space="preserve" xmlns:serif="http://www.serif.com/" style="fill-rule:evenodd;clip-rule:evenodd;stroke-linecap:round;stroke-linejoin:round;stroke-miterlimit:1.5;">
    <g id="レイヤー5">
        <path d="M893.562,1.145C510.78,1.51 -2.17,507.881 -4.629,922.48C-6.266,1198.58 306.88,1639.52 714.828,1640.73C1123.63,1641.94 1639.18,1237.29 1640.93,714.519C1642.25,320.432 1229.71,0.824 893.562,1.145ZM424.713,334.857C868.703,128.402 1346.24,534.682 1346.84,1019.71C1347.11,1232.02 1231.79,1433.68 1029.91,1433.73C402.805,1433.88 311.22,902.122 311.22,902.122L1125.91,915.768L1250.16,730.169L299.323,725.304C299.323,725.304 292.471,396.349 424.713,334.857Z" style="stroke:black;stroke-width:0.15px;"/>
    </g>
</svg>
