<?xml version="1.0" encoding="UTF-8" standalone="no"?>
<!DOCTYPE svg PUBLIC "-//W3C//DTD SVG 1.1//EN" "http://www.w3.org/Graphics/SVG/1.1/DTD/svg11.dtd">
<svg width="100%" height="100%" viewBox="0 0 2048 2048" version="1.1" xmlns="http://www.w3.org/2000/svg" xmlns:xlink="http://www.w3.org/1999/xlink" xml:space="preserve" xmlns:serif="http://www.serif.com/" style="fill-rule:evenodd;clip-rule:evenodd;stroke-linecap:round;stroke-linejoin:round;stroke-miterlimit:1.5;">
    <g transform="matrix(-1,0,0,1,1642.92,0)">
        <g id="レイヤー5">
            <path d="M1642.06,412.72C1637.88,203.926 1435.2,6.282 1234.57,5.052C914.524,3.091 512.605,719.15 512.605,719.15L204.089,715.432L104.596,918.162L407.641,922.579C407.641,922.579 132.495,1377.64 58.18,1496.24C35.575,1532.32 -0.317,1583.52 0.861,1610.37C2.174,1640.33 36.143,1637.5 56.911,1637.58C206.355,1638.12 1323.18,1635.8 1323.18,1635.8L1439.63,1435.41C1439.63,1435.41 617.83,1430.94 312.901,1430.47C294.436,1430.44 301.372,1397.65 311.049,1381.92C363.931,1295.98 612.264,922.216 612.264,922.216L909.524,923.196L1025.27,726.187L720.46,723.753C720.46,723.753 983.228,229.198 1150.18,288.658C1516.39,419.085 1231.96,927.432 1231.96,927.432C1231.96,927.432 1645.95,606.462 1642.06,412.72Z" style="stroke:black;stroke-width:1px;"/>
        </g>
    </g>
</svg>
