<?xml version="1.0" encoding="UTF-8" standalone="no"?>
<!DOCTYPE svg PUBLIC "-//W3C//DTD SVG 1.1//EN" "http://www.w3.org/Graphics/SVG/1.1/DTD/svg11.dtd">
<svg width="100%" height="100%" viewBox="0 0 2048 2048" version="1.1" xmlns="http://www.w3.org/2000/svg" xmlns:xlink="http://www.w3.org/1999/xlink" xml:space="preserve" xmlns:serif="http://www.serif.com/" style="fill-rule:evenodd;clip-rule:evenodd;stroke-linecap:round;stroke-linejoin:round;stroke-miterlimit:1.5;">
    <g id="レイヤー5">
        <path d="M304.544,611.635C304.502,510.25 306.654,410.21 203.604,411.084C96.677,411.99 102.668,518.226 102.37,615.157C101.734,822.192 105.113,913.734 103.136,1112.85C97.914,1638.62 612.113,1642.08 612.113,1642.08C612.113,1642.08 612.57,1846.55 510.53,1844.36C410.395,1842.21 407.698,1949.95 407.698,1949.95C407.698,1949.95 410.366,2046.27 516.248,2046.38C818.019,2046.68 820.764,1641.56 820.764,1641.56C820.764,1641.56 1430.86,1640.6 1432.95,1224.13C1433.95,1024.24 1228.62,817.144 1023.48,817.552C887.407,817.823 617.27,1113.93 616.533,1222.71C615.753,1337.72 614.649,1432.25 614.649,1432.25C614.649,1432.25 310.617,1433.8 305.6,1221.86C300.935,1024.74 304.631,819.242 304.544,611.635ZM819.769,1433.79C819.769,1433.79 816.769,1343.67 818.614,1230.52C821.969,1024.86 825.794,1025.6 1022.91,1023.64C1091.69,1022.96 1136.38,1227.7 1135.51,1330.48C1134.64,1431.83 819.769,1433.79 819.769,1433.79Z" style="stroke:black;stroke-width:1px;"/>
    </g>
</svg>
