<?xml version="1.0" encoding="UTF-8" standalone="no"?>
<!DOCTYPE svg PUBLIC "-//W3C//DTD SVG 1.1//EN" "http://www.w3.org/Graphics/SVG/1.1/DTD/svg11.dtd">
<svg width="100%" height="100%" viewBox="0 0 2048 2048" version="1.1" xmlns="http://www.w3.org/2000/svg" xmlns:xlink="http://www.w3.org/1999/xlink" xml:space="preserve" xmlns:serif="http://www.serif.com/" style="fill-rule:evenodd;clip-rule:evenodd;stroke-linecap:round;stroke-linejoin:round;stroke-miterlimit:1.5;">
    <g id="レイヤー5">
        <path d="M926.845,617.316C926.737,517.134 880.871,408.44 820.32,409.351C755.852,410.321 723.118,514.726 722.486,617.319C721.238,819.994 721.798,929.656 721.798,929.656C721.798,929.656 514.441,926.315 410.141,928.392C286.436,930.855 2.048,1024.1 1.791,1110.51C1.441,1228.36 0.053,1229.5 101.093,1229.19C202.954,1228.88 305.967,1167.67 409.764,1167.17C617.36,1166.17 720.067,1169.34 720.067,1169.34C720.067,1169.34 718.423,1640.5 720.768,1846.07C721.854,1941.26 757.821,2047.99 820.824,2048.07C880.388,2048.14 927.634,1940.78 927.399,1842.6C926.906,1637.03 927.283,1022.66 926.845,617.316Z" style="stroke:black;stroke-width:1px;"/>
    </g>
</svg>
