<?xml version="1.0" encoding="UTF-8" standalone="no"?>
<!DOCTYPE svg PUBLIC "-//W3C//DTD SVG 1.1//EN" "http://www.w3.org/Graphics/SVG/1.1/DTD/svg11.dtd">
<svg width="100%" height="100%" viewBox="0 0 2048 2048" version="1.1" xmlns="http://www.w3.org/2000/svg" xmlns:xlink="http://www.w3.org/1999/xlink" xml:space="preserve" xmlns:serif="http://www.serif.com/" style="fill-rule:evenodd;clip-rule:evenodd;stroke-linecap:round;stroke-linejoin:round;stroke-miterlimit:1.5;">
    <g id="レイヤー5">
        <path d="M1549.66,1544.82C1548.17,1482.75 1489.6,1433.15 1435.59,1432.87C1323.96,1432.28 1127.9,821.743 925.632,820.506C713.649,819.21 673.812,1019.35 673.812,1019.35C673.812,1019.35 610.343,820.367 410.81,820.955C366.397,821.086 305.7,925.897 305.7,925.897C305.7,925.897 305.618,818.684 304.5,614.554C303.93,510.613 256.471,407.657 202.725,407.959C108.721,408.486 2.046,463.429 0.64,516.522C-0.575,562.339 108.499,567.735 109.169,616.344C111.912,815.181 104.648,1434.21 104.648,1434.21C104.648,1434.21 -0.681,1433.34 0.131,1533.65C1.002,1641.19 105.765,1638.29 105.765,1638.29L511.445,1637.49C511.445,1637.49 614.732,1638.97 615.077,1532.09C615.396,1433.53 513.873,1434.33 513.873,1434.33L308.311,1433.22C308.311,1433.22 307.215,1334.34 308.449,1229.74C308.995,1183.5 363.052,1131.74 406.625,1131.72C578.293,1131.62 726.831,1636.75 820.781,1637.57C873.532,1638.03 1024.39,1638.54 1024.39,1638.54C1024.39,1638.54 1133.22,1636.63 1132.17,1530.66C1131.22,1434.95 1024.24,1434.05 1024.24,1434.05C1024.24,1434.05 960.702,1432.02 924.839,1432.75C819.26,1434.87 721.554,1136 721.554,1136C721.554,1136 776.916,1074.89 820.378,1075.72C1023.17,1079.59 1229.2,1638.27 1324.95,1639.49C1377.84,1640.16 1378.56,1639.49 1433.42,1639C1495.45,1638.44 1550.98,1599.62 1549.66,1544.82Z" style="stroke:black;stroke-width:1px;"/>
    </g>
</svg>
