<?xml version="1.0" encoding="UTF-8" standalone="no"?>
<!DOCTYPE svg PUBLIC "-//W3C//DTD SVG 1.1//EN" "http://www.w3.org/Graphics/SVG/1.1/DTD/svg11.dtd">
<svg width="100%" height="100%" viewBox="0 0 2048 2048" version="1.1" xmlns="http://www.w3.org/2000/svg" xmlns:xlink="http://www.w3.org/1999/xlink" xml:space="preserve" xmlns:serif="http://www.serif.com/" style="fill-rule:evenodd;clip-rule:evenodd;stroke-linecap:round;stroke-linejoin:round;stroke-miterlimit:1.5;">
    <g id="レイヤー5">
        <path d="M204.437,617.659C204.854,501.748 154.91,410.712 102.484,409.856C47.875,408.965 -0.49,502.326 0.943,609.805C3.704,816.765 -3.634,1230.55 0.724,1445.1C2.189,1517.25 37.541,1640.75 94.233,1640.36C154.36,1639.94 300.269,1327.02 301.59,1229.84C302.833,1138.36 300.323,1135.81 301.898,1027.11C303.325,928.589 204.295,926.799 202.534,821.777C200.904,724.495 204.057,723.17 204.437,617.659Z" style="stroke:black;stroke-width:1px;"/>
        <path d="M821.956,610.128C823.127,509.903 764.64,409.148 717.081,408.707C662.546,408.201 508.1,730.412 508.818,813.644C509.436,885.377 609.757,817.471 611.307,918.78C612.795,1016.06 615.622,1137.25 615.502,1236.1C615.375,1340.8 509.545,1430.37 411.655,1431.94C316.21,1433.46 267.91,1477.9 268.031,1542.94C268.139,1601.68 313.935,1638.21 413.017,1638.58C510.785,1638.95 531.35,1641.03 616.856,1639.61C712.896,1638.03 816.979,1637.25 820.937,1229.7C822.908,1026.7 819.511,819.383 821.956,610.128Z" style="stroke:black;stroke-width:1px;"/>
        <g transform="matrix(1,0,0,1,612.189,0)">
            <path d="M821.956,610.128C823.127,509.903 764.64,409.148 717.081,408.707C662.546,408.201 528.921,722.808 532.062,820.785C534.536,897.981 618.804,822.227 617.423,900.139C615.31,1019.3 615.619,1139.98 615.502,1236.1C615.375,1340.8 509.489,1428.27 411.655,1431.94C324.338,1435.21 210.441,1480.62 209.979,1546.09C209.562,1605.12 323.659,1637.55 413.017,1638.58C510.779,1639.71 531.35,1641.03 616.856,1639.61C712.896,1638.03 820.093,1634.81 820.937,1229.7C821.359,1026.69 819.511,819.383 821.956,610.128Z" style="stroke:black;stroke-width:1px;"/>
        </g>
    </g>
</svg>
