<?xml version="1.0" encoding="UTF-8" standalone="no"?>
<!DOCTYPE svg PUBLIC "-//W3C//DTD SVG 1.1//EN" "http://www.w3.org/Graphics/SVG/1.1/DTD/svg11.dtd">
<svg width="100%" height="100%" viewBox="0 0 2048 2048" version="1.1" xmlns="http://www.w3.org/2000/svg" xmlns:xlink="http://www.w3.org/1999/xlink" xml:space="preserve" xmlns:serif="http://www.serif.com/" style="fill-rule:evenodd;clip-rule:evenodd;stroke-linecap:round;stroke-linejoin:round;stroke-miterlimit:1.5;">
    <g id="レイヤー5">
        <path d="M507.279,408.828C204.115,406.743 3.455,812.093 4.213,1023.87C5.604,1413.05 204.947,1646.18 410.631,1642.89C820.143,1636.36 1130.19,1438.87 1131.88,1024.64C1133.05,738.057 813.735,410.935 507.279,408.828ZM853.084,926.65C869.945,958.693 884.775,992.305 897.167,1027.15C1010.15,1344.9 726.722,1640.27 418.795,1437.44C318.94,1371.66 280.057,1337.63 255.582,1284.7L853.084,926.65ZM823.09,874.632L233.891,1222.55C225.974,1194.33 217.852,1160.5 206.66,1117.96C156,925.413 195.416,642.088 296.364,593.464C536.803,477.651 693.446,668.658 823.09,874.632Z" style="stroke:black;stroke-width:1px;"/>
    </g>
</svg>
