<?xml version="1.0" encoding="UTF-8" standalone="no"?>
<!DOCTYPE svg PUBLIC "-//W3C//DTD SVG 1.1//EN" "http://www.w3.org/Graphics/SVG/1.1/DTD/svg11.dtd">
<svg width="100%" height="100%" viewBox="0 0 2048 2048" version="1.1" xmlns="http://www.w3.org/2000/svg" xmlns:xlink="http://www.w3.org/1999/xlink" xml:space="preserve" xmlns:serif="http://www.serif.com/" style="fill-rule:evenodd;clip-rule:evenodd;stroke-linecap:round;stroke-linejoin:round;stroke-miterlimit:1.5;">
    <g id="レイヤー5">
        <path d="M410.116,520.29C410.195,458.578 408.09,410.38 321.449,410.002C254.918,409.711 -0.207,652.712 1.777,698.76C4.571,763.581 205.773,762.86 205.678,820.236C205.342,1023.35 207.057,2045.11 207.057,2045.11C207.057,2045.11 408.975,1954.99 408.714,1845.01C408.229,1640.72 409.892,723.434 409.892,723.434C409.892,723.434 724.351,912.022 819.019,996.043C889.022,1058.17 977.235,1139.84 977.904,1227.56C979.482,1434.47 612.29,1319.23 612.29,1319.23C612.29,1319.23 823.708,1495.23 929.92,1491.75C1114,1485.73 1228.78,1437.67 1229.84,1231.26C1230.52,1098.11 1026.68,998.11 1026.68,998.11C1026.68,998.11 1232.93,929.242 1231.18,721.658C1229.9,570.575 1123.29,408.18 920.732,408.741C822.876,409.012 551.376,714.694 551.376,714.694C551.376,714.694 822.628,614.081 893.805,686.785C1022.08,817.816 929.293,940.227 929.293,940.227L411.214,649.908C411.214,649.908 409.995,614.144 410.116,520.29Z" style="stroke:black;stroke-width:1px;"/>
    </g>
</svg>
