<?xml version="1.0" encoding="UTF-8" standalone="no"?>
<!DOCTYPE svg PUBLIC "-//W3C//DTD SVG 1.1//EN" "http://www.w3.org/Graphics/SVG/1.1/DTD/svg11.dtd">
<svg width="100%" height="100%" viewBox="0 0 2048 2048" version="1.1" xmlns="http://www.w3.org/2000/svg" xmlns:xlink="http://www.w3.org/1999/xlink" xml:space="preserve" xmlns:serif="http://www.serif.com/" style="fill-rule:evenodd;clip-rule:evenodd;stroke-linecap:round;stroke-linejoin:round;stroke-miterlimit:1.5;">
    <g id="レイヤー5">
        <path d="M1171.62,928.731C1226.66,926.887 1321.08,925.226 1323.95,775.4C1326.05,665.233 1225.8,591.283 1117.47,589.776C1025.32,588.494 930.619,611.809 930.619,611.809C930.619,611.809 929.868,408.379 929.872,202.087C929.875,99.638 928.841,0.995 820.591,1.924C753.273,2.503 541.25,271.26 541.382,320.75C541.615,407.748 721.062,330.129 721.799,410.707C723.72,620.948 724.576,655.892 724.576,655.892C724.576,655.892 1.485,820.41 0.187,1231.05C-0.443,1430.23 207.138,1639.19 413.994,1636.93C616.162,1634.71 1024.42,1637.21 1330.2,1639.67C1433.44,1640.5 1436.63,1539.02 1436.63,1539.02C1436.63,1539.02 1434.27,1433.78 1332.29,1432.77C1131,1430.77 934.442,1431.86 934.442,1431.86L933.005,741.664C933.005,741.664 1108.26,669.188 1107.27,817.005C1106.89,874.656 1131.35,930.08 1171.62,928.731ZM721.26,824.856L723.232,1430.09C723.232,1430.09 615.442,1433.38 413.391,1437.06C315.675,1438.84 304.73,1308.7 305.437,1231.23C308.028,947.382 721.26,824.856 721.26,824.856Z" style="stroke:black;stroke-width:1px;"/>
    </g>
</svg>
