<?xml version="1.0" encoding="UTF-8" standalone="no"?>
<!DOCTYPE svg PUBLIC "-//W3C//DTD SVG 1.1//EN" "http://www.w3.org/Graphics/SVG/1.1/DTD/svg11.dtd">
<svg width="100%" height="100%" viewBox="0 0 2048 2048" version="1.1" xmlns="http://www.w3.org/2000/svg" xmlns:xlink="http://www.w3.org/1999/xlink" xml:space="preserve" xmlns:serif="http://www.serif.com/" style="fill-rule:evenodd;clip-rule:evenodd;stroke-linecap:round;stroke-linejoin:round;stroke-miterlimit:1.5;">
    <g id="レイヤー5">
        <path d="M818.864,201.64C819.725,134.002 819.452,-0.207 763.73,0.991C735.542,1.598 679.209,42.888 614.652,86.175C514.898,153.062 393.409,221.683 433.838,260.899C482.78,308.373 611.845,304.94 614.083,413.284C616.096,510.746 614.035,613.172 614.035,613.172C614.035,613.172 -1.854,920.609 1.179,1230.62C3.185,1435.74 210.722,1633.52 410.548,1634.07C807.062,1635.15 1227.71,1304.31 1227.71,1304.31C1227.71,1304.31 817.159,1467.45 615.959,1464.51C287.862,1459.71 267.493,1153.18 267.493,1153.18L1147.22,1155.08L1232.15,1024.41L820.275,1018.5C820.275,1018.5 816.251,406.939 818.864,201.64ZM610.974,668.644C610.974,668.644 609.772,822.695 613.243,938.843C613.975,963.345 611.796,1022.25 550.235,1022.56C414.533,1023.27 273.057,1021.16 273.057,1021.16C273.057,1021.16 334.476,886.243 413.516,818.946C496.629,748.179 610.974,668.644 610.974,668.644Z" style="stroke:black;stroke-width:1px;"/>
    </g>
</svg>
