<?xml version="1.0" encoding="UTF-8" standalone="no"?>
<!DOCTYPE svg PUBLIC "-//W3C//DTD SVG 1.1//EN" "http://www.w3.org/Graphics/SVG/1.1/DTD/svg11.dtd">
<svg width="100%" height="100%" viewBox="0 0 4096 2048" version="1.1" xmlns="http://www.w3.org/2000/svg" xmlns:xlink="http://www.w3.org/1999/xlink" xml:space="preserve" xmlns:serif="http://www.serif.com/" style="fill-rule:evenodd;clip-rule:evenodd;stroke-linecap:round;stroke-linejoin:round;stroke-miterlimit:1.5;">
    <g id="レイヤー5">
        <path d="M1113.88,615.16L561.517,617.468C561.517,617.468 551.803,409.909 490.383,410.687C437.067,411.363 407.497,463.478 310.131,503.016C208.182,544.415 110.629,571.705 110.238,620.944C109.333,734.811 487.991,467.353 281.778,1400.82C237.241,1602.43 3.413,2048.98 3.413,2048.98C3.413,2048.98 282.265,1763.3 389.68,1655.61C484.796,1560.25 547.302,1385.89 547.302,1385.89C547.302,1385.89 833.181,1637.02 1025.01,1635.53C1187.5,1634.27 1402.23,1386.27 1401.76,1233.65C1401.75,1230.15 1906.01,1167.84 1906.01,1167.84C1906.01,1167.84 1903.43,1481.75 1642.5,1538.41C1513.53,1566.42 1432.31,1586.5 1431.53,1608.75C1430.63,1634.32 1557.69,1641.58 1635.99,1640.66C2140.78,1634.68 2187.38,1131.82 2187.38,1131.82L2383.73,1114.61L2453.99,931.473L2173.76,954.719C2173.76,954.719 2142.82,405.888 1636.5,407.761C1388.19,408.679 1213.14,518.303 1113.88,615.16ZM581.405,1168.24C581.405,1168.24 810.26,1026.7 903.214,1027.89C1030.8,1029.53 1121.8,1237.6 1122.88,1329.13C1126.46,1630.23 581.405,1168.24 581.405,1168.24ZM1396.9,1158.95L1525.75,1022.43L1882.04,985.837C1882.04,985.837 1842.71,580.578 1481.59,583.116C1233.09,584.862 1228.52,823.178 1228.52,823.178L575.748,823.976C575.748,823.976 581.364,900.098 581.915,933.415C582.455,966.049 567.438,1022.98 567.438,1022.98C567.438,1022.98 1328.86,653.866 1396.9,1158.95Z" style="stroke:black;stroke-width:1px;"/>
    </g>
</svg>
