<?xml version="1.0" encoding="UTF-8" standalone="no"?>
<!DOCTYPE svg PUBLIC "-//W3C//DTD SVG 1.1//EN" "http://www.w3.org/Graphics/SVG/1.1/DTD/svg11.dtd">
<svg width="100%" height="100%" viewBox="0 0 2048 2048" version="1.1" xmlns="http://www.w3.org/2000/svg" xmlns:xlink="http://www.w3.org/1999/xlink" xml:space="preserve" xmlns:serif="http://www.serif.com/" style="fill-rule:evenodd;clip-rule:evenodd;stroke-linecap:round;stroke-linejoin:round;stroke-miterlimit:1.5;">
    <g id="レイヤー5">
        <path d="M1233.75,409.289C1214.21,408.98 1174.09,408.643 1123.89,409.272C922.868,411.79 819.585,519.43 816.511,812.341C815.366,921.482 820.884,1130.52 820.884,1130.52C820.884,1130.52 817.074,1227.53 923.495,1229.08C1031.03,1230.65 1028.31,1122.18 1028.31,1122.18L1337.04,1124.04C1334.45,1328.58 1136.93,1433.51 1026.26,1435.44C917.787,1437.33 716.366,1435.03 617.73,1432.78C520.718,1430.56 409.132,1345.29 411.361,1226.97C412.987,1140.66 403.404,1190.65 405.817,1133.8C410.164,1031.33 616.002,787.26 615.409,711.767C613.794,506.085 616.076,614.8 616.076,614.8C616.076,614.8 617.322,411.494 520.173,411.209C410.174,410.887 1.651,704.116 0.66,811.296C-0.37,922.585 44.06,926.547 102.165,925.059C156.716,923.663 214.882,610.937 311.055,613.688C409.028,616.49 407.706,619.837 411.07,815.456C412.724,911.608 209.122,1034.01 208.068,1134.42C206.951,1240.79 205.13,1233.27 204.811,1331.44C204.185,1524.55 407.665,1636.97 613.985,1639.15C714.849,1640.22 817.237,1638.72 1023.02,1637.27C1322.88,1635.15 1638.31,1435.47 1638.38,1121.84C1638.4,1022.45 1638.91,1019.49 1638.69,934.219C1637.9,629.836 1371.91,411.477 1233.75,409.289ZM1025.07,824.46C1024.32,727.9 1114.85,615.861 1229.92,616.227C1282.34,616.394 1340.2,750.707 1341.56,818.606C1343.74,927.567 1337.47,1019.72 1337.47,1019.72C1337.47,1019.72 1276.18,1021.27 1228.08,1020.81C1024.98,1018.85 1026.6,1018.18 1025.07,824.46Z" style="stroke:black;stroke-width:1px;"/>
    </g>
</svg>
