<?xml version="1.0" encoding="UTF-8" standalone="no"?>
<!DOCTYPE svg PUBLIC "-//W3C//DTD SVG 1.1//EN" "http://www.w3.org/Graphics/SVG/1.1/DTD/svg11.dtd">
<svg width="100%" height="100%" viewBox="0 0 2048 2048" version="1.1" xmlns="http://www.w3.org/2000/svg" xmlns:xlink="http://www.w3.org/1999/xlink" xml:space="preserve" xmlns:serif="http://www.serif.com/" style="fill-rule:evenodd;clip-rule:evenodd;stroke-linecap:round;stroke-linejoin:round;stroke-miterlimit:1.5;">
    <g id="レイヤー5">
        <path d="M303.881,409.417C204.882,410.728 1.297,461.091 1.92,518.044C2.465,567.785 149.148,573.094 199.66,654.807C254.017,742.741 425.482,1005.62 425.482,1005.62C425.482,1005.62 0.207,1229.99 -0.453,1340.61C-1.005,1433.09 -0.752,1436.84 1.66,1548.71C3.491,1633.59 105.112,1637.97 105.112,1637.97C105.112,1637.97 207.248,1640.32 205.474,1539.48C203.713,1439.31 204.119,1435.14 203.5,1336.77C202.822,1229.02 468.535,1075.87 468.535,1075.87C468.535,1075.87 711.195,1410.89 822.024,1557.25C847.815,1591.31 869.101,1636.78 923.912,1636.99C1023.23,1637.37 1079.19,1637.34 1126.72,1637.07C1173.44,1636.81 1233.08,1641.52 1232.75,1583.93C1232.41,1524.62 1179.82,1432.73 1133.46,1433.29C1098.05,1433.71 998.684,1376.35 978.938,1346.4C895.735,1220.19 574.602,765.496 411.829,526.161C358.755,448.123 317.438,409.237 303.881,409.417Z" style="stroke:black;stroke-width:1px;"/>
    </g>
</svg>
