<?xml version="1.0" encoding="UTF-8" standalone="no"?>
<!DOCTYPE svg PUBLIC "-//W3C//DTD SVG 1.1//EN" "http://www.w3.org/Graphics/SVG/1.1/DTD/svg11.dtd">
<svg width="100%" height="100%" viewBox="0 0 2048 2048" version="1.1" xmlns="http://www.w3.org/2000/svg" xmlns:xlink="http://www.w3.org/1999/xlink" xml:space="preserve" xmlns:serif="http://www.serif.com/" style="fill-rule:evenodd;clip-rule:evenodd;stroke-linecap:round;stroke-linejoin:round;stroke-miterlimit:1.5;">
    <g id="レイヤー5">
        <path d="M406.289,208.174C404.833,100.774 409.071,1.022 315.285,0.872C257.326,0.78 1.938,288.446 0.536,345.392C-0.296,379.209 108.463,379.999 109.121,409.304C113.672,612.173 106.81,1635.08 106.81,1635.08L411.717,1425.55L411.394,1227.55C411.394,1227.55 823.907,1229.79 822.982,1297.21C821.191,1427.61 617.832,1636.76 617.832,1636.76C617.832,1636.76 1124.84,1526.52 1129.34,1173.88C1130.51,1081.97 615.98,1078.45 615.98,1078.45C615.98,1078.45 891.479,801.84 1083.89,613.214C1156.6,541.937 1229.01,468.33 1229.04,466.222C1229.78,410.184 1230.38,411.26 1136.58,409.904C1076.74,409.04 1025.39,409.302 1025.39,409.302L409.837,1017.44C409.837,1017.44 408.97,406.031 406.289,208.174Z" style="stroke:black;stroke-width:1px;"/>
    </g>
</svg>
