<?xml version="1.0" encoding="UTF-8" standalone="no"?>
<!DOCTYPE svg PUBLIC "-//W3C//DTD SVG 1.1//EN" "http://www.w3.org/Graphics/SVG/1.1/DTD/svg11.dtd">
<svg width="100%" height="100%" viewBox="0 0 2048 2048" version="1.1" xmlns="http://www.w3.org/2000/svg" xmlns:xlink="http://www.w3.org/1999/xlink" xml:space="preserve" xmlns:serif="http://www.serif.com/" style="fill-rule:evenodd;clip-rule:evenodd;stroke-linecap:round;stroke-linejoin:round;stroke-miterlimit:1.5;">
    <g id="レイヤー5">
        <path d="M1539.7,614.543C1539.7,614.543 1542,517.985 1432.5,516.522C1231.58,513.838 1127.01,518.278 1024.27,518.555C902.392,518.883 863.467,567.757 898.884,611.21C956.42,681.802 1234.83,821.463 1230.01,1026.11C1225.2,1230.34 1127.9,1344.01 1021.55,1344.48C823.704,1345.36 615.867,1226.28 615.867,1226.28L615.359,1125.52C615.359,1125.52 672.003,1123.76 719.266,1123.48C820.175,1122.87 821.23,1024.53 821.23,1024.53C821.23,1024.53 820.581,922.306 721.079,921.477C670.852,921.059 615.595,922.783 615.595,922.783C615.595,922.783 615.075,817.887 615.266,723.466C615.487,614.413 717.277,724.438 717.109,614.528C716.958,515.143 714.698,408.9 615.034,409.857C505.842,410.904 206.571,519.091 205.124,613.014C203.368,726.993 408.15,725.61 410.414,822.766C411.495,869.174 408.996,916.451 408.996,916.451C408.996,916.451 203.277,917.553 105.208,917.351C-1.285,917.13 -0.026,1024.78 -0.026,1024.78C-0.026,1024.78 0.905,1126.63 105.035,1126.46C203.344,1126.31 409.476,1124.74 409.476,1124.74C409.476,1124.74 411.001,1334.92 410.613,1484.14C410.209,1639.55 612.688,1439.31 612.688,1439.31C612.688,1439.31 718.657,1638.04 1022.58,1640.89C1224.09,1642.78 1434.45,1527.78 1435.89,1121.76C1436.61,920.358 1230.82,714.964 1230.82,714.964C1230.82,714.964 1380.4,716.785 1435.75,716.502C1535.69,715.99 1539.7,614.543 1539.7,614.543Z" style="stroke:black;stroke-width:1px;"/>
    </g>
</svg>
