<?xml version="1.0" encoding="UTF-8" standalone="no"?>
<!DOCTYPE svg PUBLIC "-//W3C//DTD SVG 1.1//EN" "http://www.w3.org/Graphics/SVG/1.1/DTD/svg11.dtd">
<svg width="100%" height="100%" viewBox="0 0 2048 2048" version="1.1" xmlns="http://www.w3.org/2000/svg" xmlns:xlink="http://www.w3.org/1999/xlink" xml:space="preserve" xmlns:serif="http://www.serif.com/" style="fill-rule:evenodd;clip-rule:evenodd;stroke-linecap:round;stroke-linejoin:round;stroke-miterlimit:1.5;">
    <g id="レイヤー5">
        <path d="M410.533,411.213C303.996,411.593 203.952,531.165 203.95,565.28C203.947,610.482 410.018,615.898 410.018,615.898L1126.98,615.421L921.5,820.168C921.5,820.168 611.153,816.044 411.765,819.022C299.1,820.704 3.202,1026.32 2.297,1142.01C0.9,1320.56 2.049,1441.54 1.275,1530.85C0.362,1636.31 2.038,1637.96 105.705,1638.99C153.366,1639.47 178.762,1607.93 207.134,1581.33C324.513,1471.29 793.198,1022.68 793.198,1022.68L796.355,1431.46L512.28,1433.78C512.28,1433.78 409.13,1435.25 409.318,1542.13C409.49,1640.16 511.14,1638.76 511.14,1638.76C511.14,1638.76 1129.19,1639 1331.96,1637.53C1433.95,1636.79 1432.89,1538.58 1432.89,1538.58C1432.89,1538.58 1436.44,1434.16 1330.63,1433.46C1228.13,1432.79 1025.91,1434.67 1025.91,1434.67L1024.16,805.648L1231.11,613.966L1322.73,615.687C1322.73,615.687 1430.42,615.448 1432.46,514.494C1434.56,410.2 1325.11,411.402 1325.11,411.402C1325.11,411.402 615.366,410.483 410.533,411.213ZM714.764,1022.75L203.491,1520.14C203.491,1520.14 205.264,1337.72 204.514,1233.17C203.826,1137.11 314.782,1027.42 415.366,1024.55C508.472,1021.89 714.764,1022.75 714.764,1022.75Z" style="stroke:black;stroke-width:1px;"/>
    </g>
</svg>
