<?xml version="1.0" encoding="UTF-8" standalone="no"?>
<!DOCTYPE svg PUBLIC "-//W3C//DTD SVG 1.1//EN" "http://www.w3.org/Graphics/SVG/1.1/DTD/svg11.dtd">
<svg width="100%" height="100%" viewBox="0 0 2048 2048" version="1.1" xmlns="http://www.w3.org/2000/svg" xmlns:xlink="http://www.w3.org/1999/xlink" xml:space="preserve" xmlns:serif="http://www.serif.com/" style="fill-rule:evenodd;clip-rule:evenodd;stroke-linecap:round;stroke-linejoin:round;stroke-miterlimit:1.5;">
    <g id="レイヤー5">
        <path d="M1639.55,511.104C1638.32,410.434 1530.87,410.867 1530.87,410.867C1530.87,410.867 1024.98,408.252 726.471,409.344C412.804,410.491 -3.251,821.784 0.274,1226.53C5.589,1836.62 882.567,2044.73 925.939,2044.38C1227.85,2041.89 305.513,1845.21 306.705,1230.78C307.497,822.676 517.109,611.05 728.609,609.828C923.083,608.705 927.939,612.711 927.939,612.711C927.939,612.711 926.762,1228.91 925.015,1325.9C924.053,1379.28 968.732,1433.35 1023.81,1434.87C1081.33,1436.47 1126.52,1384.43 1127.35,1333.48C1129.01,1231.3 1133.01,615.138 1133.01,615.138L1529.07,611.877C1529.07,611.877 1640.83,615.532 1639.55,511.104Z" style="stroke:black;stroke-width:1px;"/>
    </g>
</svg>
