<?xml version="1.0" encoding="UTF-8" standalone="no"?>
<!DOCTYPE svg PUBLIC "-//W3C//DTD SVG 1.1//EN" "http://www.w3.org/Graphics/SVG/1.1/DTD/svg11.dtd">
<svg width="100%" height="100%" viewBox="0 0 2048 2048" version="1.1" xmlns="http://www.w3.org/2000/svg" xmlns:xlink="http://www.w3.org/1999/xlink" xml:space="preserve" xmlns:serif="http://www.serif.com/" style="fill-rule:evenodd;clip-rule:evenodd;stroke-linecap:round;stroke-linejoin:round;stroke-miterlimit:1.5;">
    <g transform="matrix(1,0,0,1,177.878,8.47036)">
        <g id="レイヤー5">
            <path d="M312.506,402.217C259.19,402.892 229.619,455.007 132.253,494.546C30.304,535.945 -67.249,563.235 -67.64,612.474C-68.544,726.34 310.114,458.882 103.9,1392.35C59.363,1593.96 -174.464,2040.51 -174.464,2040.51C-174.464,2040.51 104.387,1754.83 211.803,1647.14C306.919,1551.78 369.425,1377.42 369.425,1377.42C369.425,1377.42 655.303,1628.55 847.127,1627.06C1009.62,1625.8 1224.35,1377.8 1223.88,1225.18C1221.99,610.975 389.561,1014.5 389.561,1014.5C389.561,1014.5 404.578,957.578 404.038,924.945C403.486,891.628 397.87,815.506 397.87,815.506L1041.28,814.139L1256.59,605.35L383.64,608.998C383.64,608.998 373.925,401.439 312.506,402.217ZM403.527,1159.77C403.527,1159.77 632.382,1018.23 725.336,1019.42C852.923,1021.06 943.918,1229.13 945.005,1320.66C948.578,1621.76 403.527,1159.77 403.527,1159.77Z" style="stroke:black;stroke-width:1px;"/>
        </g>
    </g>
</svg>
