<?xml version="1.0" encoding="UTF-8" standalone="no"?>
<!DOCTYPE svg PUBLIC "-//W3C//DTD SVG 1.1//EN" "http://www.w3.org/Graphics/SVG/1.1/DTD/svg11.dtd">
<svg width="100%" height="100%" viewBox="0 0 2048 2048" version="1.1" xmlns="http://www.w3.org/2000/svg" xmlns:xlink="http://www.w3.org/1999/xlink" xml:space="preserve" xmlns:serif="http://www.serif.com/" style="fill-rule:evenodd;clip-rule:evenodd;stroke-linecap:round;stroke-linejoin:round;stroke-miterlimit:1.5;">
    <g id="レイヤー5">
        <path d="M1076.34,608.96C1072.6,513.599 1024.01,406.358 916.263,407.407C819.126,408.353 761.717,558.59 762.198,617.558C762.595,666.077 823.348,665.561 822.138,714.068C820.833,766.37 820.352,927.91 820.352,927.91C820.352,927.91 2.487,817.961 -3.515,1353.07C-11.202,2038.35 822.361,2045.05 822.361,2045.05C822.361,2045.05 232.677,1960.54 234.863,1349.08C236.339,936.29 817.165,1026.38 817.165,1026.38C817.165,1026.38 819.082,1332.6 819.026,1432.52C819.001,1477.47 824.603,1513.06 926.204,1510.64C1022.48,1508.35 1023.78,1475.6 1024.32,1433.94C1026.98,1228.96 1020.71,1019.62 1021.05,920.816C1021.39,823.475 1080.08,704.443 1076.34,608.96Z" style="stroke:black;stroke-width:1px;"/>
    </g>
</svg>
