<?xml version="1.0" encoding="UTF-8" standalone="no"?>
<!DOCTYPE svg PUBLIC "-//W3C//DTD SVG 1.1//EN" "http://www.w3.org/Graphics/SVG/1.1/DTD/svg11.dtd">
<svg width="100%" height="100%" viewBox="0 0 2048 2048" version="1.1" xmlns="http://www.w3.org/2000/svg" xmlns:xlink="http://www.w3.org/1999/xlink" xml:space="preserve" xmlns:serif="http://www.serif.com/" style="fill-rule:evenodd;clip-rule:evenodd;stroke-linecap:round;stroke-linejoin:round;stroke-miterlimit:1.5;">
    <g id="レイヤー5">
        <path d="M1233.75,409.289C1214.21,408.98 1174.09,408.643 1123.89,409.272C922.868,411.79 819.585,519.43 816.511,812.341C815.366,921.482 821.461,1025.23 820.884,1130.52C820.335,1230.76 925.988,1229.01 925.988,1229.01L1339.37,1228.5C1336.78,1433.03 1136.93,1433.51 1026.26,1435.44C917.787,1437.33 716.366,1435.03 617.73,1432.78C520.718,1430.56 409.132,1345.29 411.361,1226.97C412.987,1140.66 403.404,1190.65 405.817,1133.8C410.164,1031.33 616.002,787.26 615.409,711.767C613.794,506.085 616.076,614.8 616.076,614.8C616.076,614.8 617.322,411.494 520.173,411.209C410.174,410.887 1.651,704.116 0.66,811.296C-0.37,922.585 44.06,926.547 102.165,925.059C156.716,923.663 214.882,610.937 311.055,613.688C409.028,616.49 407.706,619.837 411.07,815.456C412.724,911.608 209.122,1034.01 208.068,1134.42C206.951,1240.79 205.13,1233.27 204.811,1331.44C204.185,1524.55 407.665,1636.97 613.985,1639.15C714.849,1640.22 817.237,1638.72 1023.02,1637.27C1322.88,1635.15 1638.31,1435.47 1638.38,1121.84C1638.4,1022.45 1638.91,1019.49 1638.69,934.219C1637.9,629.836 1371.91,411.477 1233.75,409.289ZM1025.07,824.46C1024.32,727.9 1114.85,615.861 1229.92,616.227C1282.34,616.394 1346.03,751.395 1347.38,819.293C1349.56,928.255 1350.93,1116.74 1350.93,1116.74C1350.93,1116.74 1279.73,1116.14 1231.63,1115.68C1028.53,1113.72 1026.6,1018.18 1025.07,824.46Z" style="stroke:black;stroke-width:1px;"/>
    </g>
</svg>
