<?xml version="1.0" encoding="UTF-8" standalone="no"?>
<!DOCTYPE svg PUBLIC "-//W3C//DTD SVG 1.1//EN" "http://www.w3.org/Graphics/SVG/1.1/DTD/svg11.dtd">
<svg width="100%" height="100%" viewBox="0 0 2048 2048" version="1.1" xmlns="http://www.w3.org/2000/svg" xmlns:xlink="http://www.w3.org/1999/xlink" xml:space="preserve" xmlns:serif="http://www.serif.com/" style="fill-rule:evenodd;clip-rule:evenodd;stroke-linecap:round;stroke-linejoin:round;stroke-miterlimit:1.5;">
    <g id="レイヤー5">
        <path d="M513.943,618.62C513.459,506.509 507.029,409.977 408.003,410.36C319.202,410.703 1.26,712.1 -0.131,767.934C-1.439,820.444 265.856,816.058 268.634,924.576C271.097,1020.78 269.962,1325.54 271.351,1434.81C272.699,1540.89 306.725,1641.12 359.747,1640.16C412.769,1639.21 573.358,1486.02 574.032,1436.48C574.688,1388.34 515.892,1433.12 515.918,1385.22C515.93,1364.71 515.329,1323.88 515.329,1323.88C515.329,1323.88 818.995,1025.29 921.073,1025.74C1018.79,1026.18 1131.46,1135.98 1131.67,1231.51C1132.11,1433.28 818.974,1638.68 818.974,1638.68C818.974,1638.68 1435.61,1544.31 1436.21,1229.58C1436.6,1025.78 1229.78,918.772 1021.86,917.826C822.093,916.918 517.713,1128.13 517.713,1128.13C517.713,1128.13 514.799,817.222 513.943,618.62Z" style="stroke:black;stroke-width:1px;"/>
    </g>
</svg>
