<?xml version="1.0" encoding="UTF-8" standalone="no"?>
<!DOCTYPE svg PUBLIC "-//W3C//DTD SVG 1.1//EN" "http://www.w3.org/Graphics/SVG/1.1/DTD/svg11.dtd">
<svg width="100%" height="100%" viewBox="0 0 2048 2048" version="1.1" xmlns="http://www.w3.org/2000/svg" xmlns:xlink="http://www.w3.org/1999/xlink" xml:space="preserve" xmlns:serif="http://www.serif.com/" style="fill-rule:evenodd;clip-rule:evenodd;stroke-linecap:round;stroke-linejoin:round;stroke-miterlimit:1.5;">
    <g id="レイヤー5">
        <path d="M514.795,204.899C514.334,106.86 466.682,1.157 410.529,1.705C322.167,2.567 129.061,108.163 128.855,207.044C128.66,300.1 309.174,206.362 311.141,410.578C313.099,613.891 312.438,910.716 312.438,910.716L95.976,954.848L0.133,1188.87L310.16,1143.85L311.602,1634.91L823.548,1639.72C823.548,1639.72 929.74,1639.09 929.863,1537.95C929.992,1432.78 822.03,1431.9 822.03,1431.9L520.172,1431.81L520.708,1122.27L714.845,1088.11L823.297,853.444L515.992,891.016C515.992,891.016 515.759,410.164 514.795,204.899Z" style="stroke:black;stroke-width:1px;"/>
    </g>
</svg>
