<?xml version="1.0" encoding="UTF-8" standalone="no"?>
<!DOCTYPE svg PUBLIC "-//W3C//DTD SVG 1.1//EN" "http://www.w3.org/Graphics/SVG/1.1/DTD/svg11.dtd">
<svg width="100%" height="100%" viewBox="0 0 2048 2048" version="1.1" xmlns="http://www.w3.org/2000/svg" xmlns:xlink="http://www.w3.org/1999/xlink" xml:space="preserve" xmlns:serif="http://www.serif.com/" style="fill-rule:evenodd;clip-rule:evenodd;stroke-linecap:round;stroke-linejoin:round;stroke-miterlimit:1.5;">
    <g id="レイヤー5">
        <path d="M615.251,615.763C615.251,615.763 615.253,617.44 615.251,615.763C615.089,520.935 613.086,407.863 513.779,409.52C410.126,411.249 202.773,650.555 203.104,704.379C203.742,808.171 410.295,716.309 409.549,818.529C408.819,918.602 410.68,1022.39 410.68,1022.39C410.68,1022.39 202.154,1024.26 107.169,1024.45C3.454,1024.67 1.1,1130.2 1.1,1130.2C1.1,1130.2 6.615,1229.73 102.707,1230.33C201.844,1230.94 410.499,1229.3 410.499,1229.3C410.499,1229.3 407.678,1434.39 409.021,1534.72C410.451,1641.5 515.098,1639.96 515.098,1639.96C515.098,1639.96 613.995,1635.79 614.545,1538.27C615.121,1436.14 614.319,1228.3 614.319,1228.3C614.319,1228.3 723.894,1229.61 818.588,1228.9C920.121,1228.14 926.321,1125.46 926.321,1125.46C926.321,1125.46 923.428,1024.89 821.635,1024.14C717.821,1023.37 614.848,1022.12 614.848,1022.12L616.206,663.312C616.206,663.312 1226.92,819.601 1225.91,1229.63C1224.94,1625.72 881.162,1313.36 881.162,1313.36C881.162,1313.36 920.582,1635.2 1135.55,1635.08C1341.57,1634.97 1540.12,1535.51 1538.1,1335C1532.96,824.551 615.251,615.763 615.251,615.763Z" style="stroke:black;stroke-width:1px;"/>
    </g>
</svg>
