<?xml version="1.0" encoding="UTF-8" standalone="no"?>
<!DOCTYPE svg PUBLIC "-//W3C//DTD SVG 1.1//EN" "http://www.w3.org/Graphics/SVG/1.1/DTD/svg11.dtd">
<svg width="100%" height="100%" viewBox="0 0 2048 2048" version="1.1" xmlns="http://www.w3.org/2000/svg" xmlns:xlink="http://www.w3.org/1999/xlink" xml:space="preserve" xmlns:serif="http://www.serif.com/" style="fill-rule:evenodd;clip-rule:evenodd;stroke-linecap:round;stroke-linejoin:round;stroke-miterlimit:1.5;">
    <g id="レイヤー5">
        <path d="M317.161,614.628C315.458,522.243 310.069,410.264 205.03,408.355C154.687,407.44 116.888,460.017 79.074,523.227C40.608,587.526 2.563,662.874 3.433,709.743C4.387,761.19 109.778,768.677 110.277,819.806C112.284,1025.44 108.526,1847.15 108.526,1847.15C108.526,1847.15 108.884,2048.06 205.524,2049.02C314.566,2050.1 319.013,1844.31 319.013,1844.31L319.353,919.898C319.353,919.898 517.801,930.002 719.707,1132.4C814.279,1227.2 827.842,1432.74 909.405,1433.23C1020.06,1433.88 1026.87,1329.98 1025.38,1234.22C1019.67,867.037 319.353,853.659 319.353,853.659C319.353,853.659 318.541,689.451 317.161,614.628Z" style="stroke:black;stroke-width:1px;"/>
    </g>
</svg>
