<?xml version="1.0" encoding="UTF-8" standalone="no"?>
<!DOCTYPE svg PUBLIC "-//W3C//DTD SVG 1.1//EN" "http://www.w3.org/Graphics/SVG/1.1/DTD/svg11.dtd">
<svg width="100%" height="100%" viewBox="0 0 2048 2048" version="1.1" xmlns="http://www.w3.org/2000/svg" xmlns:xlink="http://www.w3.org/1999/xlink" xml:space="preserve" xmlns:serif="http://www.serif.com/" style="fill-rule:evenodd;clip-rule:evenodd;stroke-linecap:round;stroke-linejoin:round;stroke-miterlimit:1.5;">
    <g id="レイヤー5">
        <path d="M309.121,610.225C308.913,506.097 255.647,408.957 204.514,409.373C153.382,409.789 38.81,525.976 39.783,619.482C41.906,823.485 45.057,1028.16 42.82,1229.92C41.663,1334.37 109.099,1434.16 206.711,1435.64C240.689,1436.15 274.676,1435.54 308.659,1435.65C409.148,1435.97 410.629,1436.6 409.131,1331.77C408.558,1291.69 407.52,1172.46 407.52,1172.46L672.538,819.967L821.028,821.15C871.034,821.386 929.798,818.88 930.986,933.604C931.863,1018.29 928.918,1083.1 928.722,1223.07C928.428,1433.16 820.661,1432.05 609.43,1433.89C560.146,1434.32 502.599,1435.75 502.638,1496.89C502.678,1559.77 563.574,1637.96 611.944,1637.49C702.641,1636.59 924.2,1640.18 1026.43,1637.17C1141.1,1633.79 1131.74,1539.67 1131.26,1433.96C1130.31,1227.87 1134.54,1067.16 1130.86,928.133C1128.03,821.412 1060.38,817.912 1026.66,819.248C1026.66,819.248 1189.56,821.216 1229.42,819.957C1279.53,818.374 1345.99,748.004 1345.85,681.586C1345.7,615.353 1283.81,616.573 1231.94,615.681C1126.79,613.872 819.823,611.884 728.573,615.275C676.856,617.196 612.234,657.977 613.414,719.407C615.358,820.589 615.603,821.96 615.603,821.96L307.885,1232.01C307.885,1232.01 309.533,816.473 309.121,610.225Z" style="stroke:black;stroke-width:1px;"/>
    </g>
</svg>
