<?xml version="1.0" encoding="UTF-8" standalone="no"?>
<!DOCTYPE svg PUBLIC "-//W3C//DTD SVG 1.1//EN" "http://www.w3.org/Graphics/SVG/1.1/DTD/svg11.dtd">
<svg width="100%" height="100%" viewBox="0 0 2048 2048" version="1.1" xmlns="http://www.w3.org/2000/svg" xmlns:xlink="http://www.w3.org/1999/xlink" xml:space="preserve" xmlns:serif="http://www.serif.com/" style="fill-rule:evenodd;clip-rule:evenodd;stroke-linecap:round;stroke-linejoin:round;stroke-miterlimit:1.5;">
    <g id="レイヤー5">
        <path d="M616.303,409.69C206.204,411.207 -4.041,709.223 -3.134,756.542C0.238,932.331 67.904,587.469 461.394,585.045C822.517,582.821 861.843,987.766 861.843,987.766L505.555,1024.36L308.442,1233.21L885.809,1169.77C885.809,1169.77 883.234,1483.68 622.302,1540.35C493.334,1568.35 412.113,1588.43 411.333,1610.68C410.436,1636.25 537.494,1643.51 615.79,1642.59C1120.58,1636.61 1167.19,1133.75 1167.19,1133.75L1363.53,1116.54L1433.79,933.403L1153.56,956.649C1153.56,956.649 1122.63,407.818 616.303,409.69Z" style="stroke:black;stroke-width:1px;"/>
    </g>
</svg>
