<?xml version="1.0" encoding="UTF-8" standalone="no"?>
<!DOCTYPE svg PUBLIC "-//W3C//DTD SVG 1.1//EN" "http://www.w3.org/Graphics/SVG/1.1/DTD/svg11.dtd">
<svg width="100%" height="100%" viewBox="0 0 2048 2048" version="1.1" xmlns="http://www.w3.org/2000/svg" xmlns:xlink="http://www.w3.org/1999/xlink" xml:space="preserve" xmlns:serif="http://www.serif.com/" style="fill-rule:evenodd;clip-rule:evenodd;stroke-linecap:round;stroke-linejoin:round;stroke-miterlimit:1.5;">
    <g id="レイヤー5">
        <path d="M203.916,409.625C94.775,411.007 0.995,516.591 0.23,612.857C-0.674,726.723 204.472,949.877 204.081,1134.87C203.645,1341.34 3.621,1848.32 3.621,1848.32C3.621,1848.32 104.387,1754.83 211.803,1647.14C306.919,1551.78 405.395,1440.74 470.955,1440.36C612.377,1439.53 623.105,1641.58 814.929,1640.09C977.426,1638.83 1224.5,1377.8 1223.88,1225.18C1223.1,1032.64 829.122,818.673 829.122,818.673L1025.13,823.429C1025.13,823.429 1023.97,614.161 924.593,613.088C822.107,611.981 613.581,614.913 368.052,614.263C303.539,614.092 265.336,408.847 203.916,409.625ZM411.212,820.872C411.212,820.872 318.253,820.179 411.212,820.872C731.656,823.262 906.246,1235.77 924.354,1324.29C989.607,1643.26 413.561,1234.39 412.196,1145.56C408.948,934.06 411.212,820.872 411.212,820.872Z" style="stroke:black;stroke-width:1px;"/>
    </g>
</svg>
