<?xml version="1.0" encoding="UTF-8" standalone="no"?>
<!DOCTYPE svg PUBLIC "-//W3C//DTD SVG 1.1//EN" "http://www.w3.org/Graphics/SVG/1.1/DTD/svg11.dtd">
<svg width="100%" height="100%" viewBox="0 0 2048 2048" version="1.1" xmlns="http://www.w3.org/2000/svg" xmlns:xlink="http://www.w3.org/1999/xlink" xml:space="preserve" xmlns:serif="http://www.serif.com/" style="fill-rule:evenodd;clip-rule:evenodd;stroke-linecap:round;stroke-linejoin:round;stroke-miterlimit:1.5;">
    <g id="レイヤー5">
        <path d="M819.144,514.374C818.068,412.125 818.85,409.157 744.047,409.54C657.261,409.984 509.972,533.115 510.045,617.497C510.094,674.073 614.371,617.725 613.604,670.396C612.901,718.639 615.085,860 615.085,860C615.085,860 516.401,818.734 410.612,818.982C206.377,819.46 2.363,974.282 0.991,1024.4C-0.415,1075.74 205.923,932.037 410.212,926.106C512.722,923.13 614.706,977.982 614.706,977.982C614.706,977.982 614.847,1229.49 614.664,1545.19C614.611,1635.85 721.406,1643.87 721.406,1643.87C721.406,1643.87 817.588,1636.55 817.574,1538.32C817.529,1227.3 822.358,819.564 819.144,514.374Z" style="stroke:black;stroke-width:1px;"/>
    </g>
</svg>
